#usda 1.0
(
    defaultPrim = "Bowl"
    metersPerUnit = 1
    upAxis = "Z"
)

def Xform "Bowl"
{
    def Mesh "Mesh" (
        prepend apiSchemas = ["MaterialBindingAPI", "PhysicsCollisionAPI", "PhysicsMeshCollisionAPI"]
    )
    {
        float3[] extent = [(-0.0556, -0.0556, 0), (0.0556, 0.0556, 0.0530)]
        int[] faceVertexCounts = [4, 4, 4, 4, 4, 4, 4, 4, 4, 4, 4, 4, 4, 4, 4, 4, 4, 4, 4, 4, 4, 4, 4, 4, 4, 4, 4, 4, 4, 4, 4, 4, 4, 4, 4, 4, 4, 4, 4, 4, 4, 4, 4, 4, 4, 4, 4, 4, 4, 4, 4, 4, 4, 4, 4, 4, 4, 4, 4, 4, 4, 4, 4, 4, 4, 4, 4, 4, 4, 4, 4, 4, 4, 4, 4, 4, 4, 4, 4, 4, 4, 4, 4, 4, 4, 4, 4, 4, 4, 4, 4, 4, 4, 4, 4, 4, 4, 4, 4, 4, 4, 4, 4, 4, 4, 4, 4, 4, 4, 4, 4, 4, 4, 4, 4, 4, 4, 4, 4, 4, 4, 4, 4, 4, 4, 4, 4, 4, 4, 4, 4, 4, 4, 4, 4, 4, 4, 4, 4, 4, 4, 4, 4, 4, 4, 4, 4, 4, 4, 4, 4, 4, 4, 4, 4, 4, 4, 4, 4, 4, 4, 4, 4, 4, 4, 4, 4, 4, 4, 4, 4, 4, 4, 4, 4, 4, 4, 4, 4, 4, 4, 4, 4, 4, 4, 4, 4, 4, 4, 4, 4, 4, 4, 4, 4, 4, 4, 4, 4, 4, 4, 4, 4, 4, 4, 4, 4, 4, 4, 4, 4, 4, 4, 4, 4, 4, 4, 4, 4, 4, 4, 4, 4, 4, 4, 4, 4, 4, 4, 4, 4, 4, 4, 4, 4, 4, 4, 4, 4, 4, 4, 4, 4, 4, 4, 4, 4, 4, 4, 4, 4, 4, 4, 4, 4, 4, 4, 4, 4, 4, 4, 4, 4, 4, 4, 4, 4, 4, 4, 4, 4, 4, 4, 4, 4, 4, 4, 4, 4, 4, 4, 4, 4, 4, 4, 4, 4, 4, 4, 4, 4, 4, 4, 4, 4, 4, 4, 4, 4, 4, 4, 4, 4, 4, 4, 4, 4, 4, 4, 4, 4, 4, 4, 4, 4, 4, 4, 4, 4, 4, 4, 4, 4, 4, 4, 4, 4, 4, 4, 4, 4, 4, 4, 4, 4, 4, 4, 4, 4, 4, 4, 4, 4, 4, 4, 4, 4, 4, 4, 4, 4, 4, 4, 4, 4, 4, 4, 4, 4, 4, 4, 4, 4, 4, 4, 4, 4, 4, 4, 4, 4, 4, 4, 4, 4, 4, 4, 4, 4, 4, 4, 4, 4, 4, 3, 3, 3, 3, 3, 3, 3, 3, 3, 3, 3, 3, 3, 3, 3, 3, 3, 3, 3, 3, 3, 3, 3, 3, 3, 3, 3, 3, 3, 3, 3, 3, 3, 3, 3, 3, 3, 3, 3, 3, 3, 3, 3, 3, 3, 3, 3, 3, 3, 3, 3, 3, 3, 3, 3, 3, 3, 3, 3, 3, 3, 3, 3, 3, 3, 3, 3, 3, 3, 3, 3, 3, 3, 3, 3, 3, 3, 3, 3, 3, 3, 3, 3, 3, 3, 3, 3, 3, 3, 3, 3, 3, 3, 3, 3, 3]
        int[] faceVertexIndices = [0, 1, 49, 48, 1, 2, 50, 49, 2, 3, 51, 50, 3, 4, 52, 51, 4, 5, 53, 52, 5, 6, 54, 53, 6, 7, 55, 54, 7, 8, 56, 55, 8, 9, 57, 56, 9, 10, 58, 57, 10, 11, 59, 58, 11, 12, 60, 59, 12, 13, 61, 60, 13, 14, 62, 61, 14, 15, 63, 62, 15, 16, 64, 63, 16, 17, 65, 64, 17, 18, 66, 65, 18, 19, 67, 66, 19, 20, 68, 67, 20, 21, 69, 68, 21, 22, 70, 69, 22, 23, 71, 70, 23, 24, 72, 71, 24, 25, 73, 72, 25, 26, 74, 73, 26, 27, 75, 74, 27, 28, 76, 75, 28, 29, 77, 76, 29, 30, 78, 77, 30, 31, 79, 78, 31, 32, 80, 79, 32, 33, 81, 80, 33, 34, 82, 81, 34, 35, 83, 82, 35, 36, 84, 83, 36, 37, 85, 84, 37, 38, 86, 85, 38, 39, 87, 86, 39, 40, 88, 87, 40, 41, 89, 88, 41, 42, 90, 89, 42, 43, 91, 90, 43, 44, 92, 91, 44, 45, 93, 92, 45, 46, 94, 93, 46, 47, 95, 94, 47, 0, 48, 95, 48, 49, 97, 96, 49, 50, 98, 97, 50, 51, 99, 98, 51, 52, 100, 99, 52, 53, 101, 100, 53, 54, 102, 101, 54, 55, 103, 102, 55, 56, 104, 103, 56, 57, 105, 104, 57, 58, 106, 105, 58, 59, 107, 106, 59, 60, 108, 107, 60, 61, 109, 108, 61, 62, 110, 109, 62, 63, 111, 110, 63, 64, 112, 111, 64, 65, 113, 112, 65, 66, 114, 113, 66, 67, 115, 114, 67, 68, 116, 115, 68, 69, 117, 116, 69, 70, 118, 117, 70, 71, 119, 118, 71, 72, 120, 119, 72, 73, 121, 120, 73, 74, 122, 121, 74, 75, 123, 122, 75, 76, 124, 123, 76, 77, 125, 124, 77, 78, 126, 125, 78, 79, 127, 126, 79, 80, 128, 127, 80, 81, 129, 128, 81, 82, 130, 129, 82, 83, 131, 130, 83, 84, 132, 131, 84, 85, 133, 132, 85, 86, 134, 133, 86, 87, 135, 134, 87, 88, 136, 135, 88, 89, 137, 136, 89, 90, 138, 137, 90, 91, 139, 138, 91, 92, 140, 139, 92, 93, 141, 140, 93, 94, 142, 141, 94, 95, 143, 142, 95, 48, 96, 143, 96, 97, 145, 144, 97, 98, 146, 145, 98, 99, 147, 146, 99, 100, 148, 147, 100, 101, 149, 148, 101, 102, 150, 149, 102, 103, 151, 150, 103, 104, 152, 151, 104, 105, 153, 152, 105, 106, 154, 153, 106, 107, 155, 154, 107, 108, 156, 155, 108, 109, 157, 156, 109, 110, 158, 157, 110, 111, 159, 158, 111, 112, 160, 159, 112, 113, 161, 160, 113, 114, 162, 161, 114, 115, 163, 162, 115, 116, 164, 163, 116, 117, 165, 164, 117, 118, 166, 165, 118, 119, 167, 166, 119, 120, 168, 167, 120, 121, 169, 168, 121, 122, 170, 169, 122, 123, 171, 170, 123, 124, 172, 171, 124, 125, 173, 172, 125, 126, 174, 173, 126, 127, 175, 174, 127, 128, 176, 175, 128, 129, 177, 176, 129, 130, 178, 177, 130, 131, 179, 178, 131, 132, 180, 179, 132, 133, 181, 180, 133, 134, 182, 181, 134, 135, 183, 182, 135, 136, 184, 183, 136, 137, 185, 184, 137, 138, 186, 185, 138, 139, 187, 186, 139, 140, 188, 187, 140, 141, 189, 188, 141, 142, 190, 189, 142, 143, 191, 190, 143, 96, 144, 191, 144, 145, 193, 192, 145, 146, 194, 193, 146, 147, 195, 194, 147, 148, 196, 195, 148, 149, 197, 196, 149, 150, 198, 197, 150, 151, 199, 198, 151, 152, 200, 199, 152, 153, 201, 200, 153, 154, 202, 201, 154, 155, 203, 202, 155, 156, 204, 203, 156, 157, 205, 204, 157, 158, 206, 205, 158, 159, 207, 206, 159, 160, 208, 207, 160, 161, 209, 208, 161, 162, 210, 209, 162, 163, 211, 210, 163, 164, 212, 211, 164, 165, 213, 212, 165, 166, 214, 213, 166, 167, 215, 214, 167, 168, 216, 215, 168, 169, 217, 216, 169, 170, 218, 217, 170, 171, 219, 218, 171, 172, 220, 219, 172, 173, 221, 220, 173, 174, 222, 221, 174, 175, 223, 222, 175, 176, 224, 223, 176, 177, 225, 224, 177, 178, 226, 225, 178, 179, 227, 226, 179, 180, 228, 227, 180, 181, 229, 228, 181, 182, 230, 229, 182, 183, 231, 230, 183, 184, 232, 231, 184, 185, 233, 232, 185, 186, 234, 233, 186, 187, 235, 234, 187, 188, 236, 235, 188, 189, 237, 236, 189, 190, 238, 237, 190, 191, 239, 238, 191, 144, 192, 239, 192, 193, 241, 240, 193, 194, 242, 241, 194, 195, 243, 242, 195, 196, 244, 243, 196, 197, 245, 244, 197, 198, 246, 245, 198, 199, 247, 246, 199, 200, 248, 247, 200, 201, 249, 248, 201, 202, 250, 249, 202, 203, 251, 250, 203, 204, 252, 251, 204, 205, 253, 252, 205, 206, 254, 253, 206, 207, 255, 254, 207, 208, 256, 255, 208, 209, 257, 256, 209, 210, 258, 257, 210, 211, 259, 258, 211, 212, 260, 259, 212, 213, 261, 260, 213, 214, 262, 261, 214, 215, 263, 262, 215, 216, 264, 263, 216, 217, 265, 264, 217, 218, 266, 265, 218, 219, 267, 266, 219, 220, 268, 267, 220, 221, 269, 268, 221, 222, 270, 269, 222, 223, 271, 270, 223, 224, 272, 271, 224, 225, 273, 272, 225, 226, 274, 273, 226, 227, 275, 274, 227, 228, 276, 275, 228, 229, 277, 276, 229, 230, 278, 277, 230, 231, 279, 278, 231, 232, 280, 279, 232, 233, 281, 280, 233, 234, 282, 281, 234, 235, 283, 282, 235, 236, 284, 283, 236, 237, 285, 284, 237, 238, 286, 285, 238, 239, 287, 286, 239, 192, 240, 287, 240, 241, 289, 288, 241, 242, 290, 289, 242, 243, 291, 290, 243, 244, 292, 291, 244, 245, 293, 292, 245, 246, 294, 293, 246, 247, 295, 294, 247, 248, 296, 295, 248, 249, 297, 296, 249, 250, 298, 297, 250, 251, 299, 298, 251, 252, 300, 299, 252, 253, 301, 300, 253, 254, 302, 301, 254, 255, 303, 302, 255, 256, 304, 303, 256, 257, 305, 304, 257, 258, 306, 305, 258, 259, 307, 306, 259, 260, 308, 307, 260, 261, 309, 308, 261, 262, 310, 309, 262, 263, 311, 310, 263, 264, 312, 311, 264, 265, 313, 312, 265, 266, 314, 313, 266, 267, 315, 314, 267, 268, 316, 315, 268, 269, 317, 316, 269, 270, 318, 317, 270, 271, 319, 318, 271, 272, 320, 319, 272, 273, 321, 320, 273, 274, 322, 321, 274, 275, 323, 322, 275, 276, 324, 323, 276, 277, 325, 324, 277, 278, 326, 325, 278, 279, 327, 326, 279, 280, 328, 327, 280, 281, 329, 328, 281, 282, 330, 329, 282, 283, 331, 330, 283, 284, 332, 331, 284, 285, 333, 332, 285, 286, 334, 333, 286, 287, 335, 334, 287, 240, 288, 335, 288, 289, 337, 336, 289, 290, 338, 337, 290, 291, 339, 338, 291, 292, 340, 339, 292, 293, 341, 340, 293, 294, 342, 341, 294, 295, 343, 342, 295, 296, 344, 343, 296, 297, 345, 344, 297, 298, 346, 345, 298, 299, 347, 346, 299, 300, 348, 347, 300, 301, 349, 348, 301, 302, 350, 349, 302, 303, 351, 350, 303, 304, 352, 351, 304, 305, 353, 352, 305, 306, 354, 353, 306, 307, 355, 354, 307, 308, 356, 355, 308, 309, 357, 356, 309, 310, 358, 357, 310, 311, 359, 358, 311, 312, 360, 359, 312, 313, 361, 360, 313, 314, 362, 361, 314, 315, 363, 362, 315, 316, 364, 363, 316, 317, 365, 364, 317, 318, 366, 365, 318, 319, 367, 366, 319, 320, 368, 367, 320, 321, 369, 368, 321, 322, 370, 369, 322, 323, 371, 370, 323, 324, 372, 371, 324, 325, 373, 372, 325, 326, 374, 373, 326, 327, 375, 374, 327, 328, 376, 375, 328, 329, 377, 376, 329, 330, 378, 377, 330, 331, 379, 378, 331, 332, 380, 379, 332, 333, 381, 380, 333, 334, 382, 381, 334, 335, 383, 382, 335, 288, 336, 383, 336, 337, 385, 384, 337, 338, 386, 385, 338, 339, 387, 386, 339, 340, 388, 387, 340, 341, 389, 388, 341, 342, 390, 389, 342, 343, 391, 390, 343, 344, 392, 391, 344, 345, 393, 392, 345, 346, 394, 393, 346, 347, 395, 394, 347, 348, 396, 395, 348, 349, 397, 396, 349, 350, 398, 397, 350, 351, 399, 398, 351, 352, 400, 399, 352, 353, 401, 400, 353, 354, 402, 401, 354, 355, 403, 402, 355, 356, 404, 403, 356, 357, 405, 404, 357, 358, 406, 405, 358, 359, 407, 406, 359, 360, 408, 407, 360, 361, 409, 408, 361, 362, 410, 409, 362, 363, 411, 410, 363, 364, 412, 411, 364, 365, 413, 412, 365, 366, 414, 413, 366, 367, 415, 414, 367, 368, 416, 415, 368, 369, 417, 416, 369, 370, 418, 417, 370, 371, 419, 418, 371, 372, 420, 419, 372, 373, 421, 420, 373, 374, 422, 421, 374, 375, 423, 422, 375, 376, 424, 423, 376, 377, 425, 424, 377, 378, 426, 425, 378, 379, 427, 426, 379, 380, 428, 427, 380, 381, 429, 428, 381, 382, 430, 429, 382, 383, 431, 430, 383, 336, 384, 431, 432, 1, 0, 432, 2, 1, 432, 3, 2, 432, 4, 3, 432, 5, 4, 432, 6, 5, 432, 7, 6, 432, 8, 7, 432, 9, 8, 432, 10, 9, 432, 11, 10, 432, 12, 11, 432, 13, 12, 432, 14, 13, 432, 15, 14, 432, 16, 15, 432, 17, 16, 432, 18, 17, 432, 19, 18, 432, 20, 19, 432, 21, 20, 432, 22, 21, 432, 23, 22, 432, 24, 23, 432, 25, 24, 432, 26, 25, 432, 27, 26, 432, 28, 27, 432, 29, 28, 432, 30, 29, 432, 31, 30, 432, 32, 31, 432, 33, 32, 432, 34, 33, 432, 35, 34, 432, 36, 35, 432, 37, 36, 432, 38, 37, 432, 39, 38, 432, 40, 39, 432, 41, 40, 432, 42, 41, 432, 43, 42, 432, 44, 43, 432, 45, 44, 432, 46, 45, 432, 47, 46, 432, 0, 47, 433, 384, 385, 433, 385, 386, 433, 386, 387, 433, 387, 388, 433, 388, 389, 433, 389, 390, 433, 390, 391, 433, 391, 392, 433, 392, 393, 433, 393, 394, 433, 394, 395, 433, 395, 396, 433, 396, 397, 433, 397, 398, 433, 398, 399, 433, 399, 400, 433, 400, 401, 433, 401, 402, 433, 402, 403, 433, 403, 404, 433, 404, 405, 433, 405, 406, 433, 406, 407, 433, 407, 408, 433, 408, 409, 433, 409, 410, 433, 410, 411, 433, 411, 412, 433, 412, 413, 433, 413, 414, 433, 414, 415, 433, 415, 416, 433, 416, 417, 433, 417, 418, 433, 418, 419, 433, 419, 420, 433, 420, 421, 433, 421, 422, 433, 422, 423, 433, 423, 424, 433, 424, 425, 433, 425, 426, 433, 426, 427, 433, 427, 428, 433, 428, 429, 433, 429, 430, 433, 430, 431, 433, 431, 384]
        point3f[] points = [(0.04200, 0.00000, 0.00000), (0.04164, 0.00548, 0.00000), (0.04057, 0.01087, 0.00000), (0.03880, 0.01607, 0.00000), (0.03637, 0.02100, 0.00000), (0.03332, 0.02557, 0.00000), (0.02970, 0.02970, 0.00000), (0.02557, 0.03332, 0.00000), (0.02100, 0.03637, 0.00000), (0.01607, 0.03880, 0.00000), (0.01087, 0.04057, 0.00000), (0.00548, 0.04164, 0.00000), (0.00000, 0.04200, 0.00000), (-0.00548, 0.04164, 0.00000), (-0.01087, 0.04057, 0.00000), (-0.01607, 0.03880, 0.00000), (-0.02100, 0.03637, 0.00000), (-0.02557, 0.03332, 0.00000), (-0.02970, 0.02970, 0.00000), (-0.03332, 0.02557, 0.00000), (-0.03637, 0.02100, 0.00000), (-0.03880, 0.01607, 0.00000), (-0.04057, 0.01087, 0.00000), (-0.04164, 0.00548, 0.00000), (-0.04200, 0.00000, 0.00000), (-0.04164, -0.00548, 0.00000), (-0.04057, -0.01087, 0.00000), (-0.03880, -0.01607, 0.00000), (-0.03637, -0.02100, 0.00000), (-0.03332, -0.02557, 0.00000), (-0.02970, -0.02970, 0.00000), (-0.02557, -0.03332, 0.00000), (-0.02100, -0.03637, 0.00000), (-0.01607, -0.03880, 0.00000), (-0.01087, -0.04057, 0.00000), (-0.00548, -0.04164, 0.00000), (-0.00000, -0.04200, 0.00000), (0.00548, -0.04164, 0.00000), (0.01087, -0.04057, 0.00000), (0.01607, -0.03880, 0.00000), (0.02100, -0.03637, 0.00000), (0.02557, -0.03332, 0.00000), (0.02970, -0.02970, 0.00000), (0.03332, -0.02557, 0.00000), (0.03637, -0.02100, 0.00000), (0.03880, -0.01607, 0.00000), (0.04057, -0.01087, 0.00000), (0.04164, -0.00548, 0.00000), (0.04600, 0.00000, 0.00400), (0.04561, 0.00600, 0.00400), (0.04443, 0.01191, 0.00400), (0.04250, 0.01760, 0.00400), (0.03984, 0.02300, 0.00400), (0.03649, 0.02800, 0.00400), (0.03253, 0.03253, 0.00400), (0.02800, 0.03649, 0.00400), (0.02300, 0.03984, 0.00400), (0.01760, 0.04250, 0.00400), (0.01191, 0.04443, 0.00400), (0.00600, 0.04561, 0.00400), (0.00000, 0.04600, 0.00400), (-0.00600, 0.04561, 0.00400), (-0.01191, 0.04443, 0.00400), (-0.01760, 0.04250, 0.00400), (-0.02300, 0.03984, 0.00400), (-0.02800, 0.03649, 0.00400), (-0.03253, 0.03253, 0.00400), (-0.03649, 0.02800, 0.00400), (-0.03984, 0.02300, 0.00400), (-0.04250, 0.01760, 0.00400), (-0.04443, 0.01191, 0.00400), (-0.04561, 0.00600, 0.00400), (-0.04600, 0.00000, 0.00400), (-0.04561, -0.00600, 0.00400), (-0.04443, -0.01191, 0.00400), (-0.04250, -0.01760, 0.00400), (-0.03984, -0.02300, 0.00400), (-0.03649, -0.02800, 0.00400), (-0.03253, -0.03253, 0.00400), (-0.02800, -0.03649, 0.00400), (-0.02300, -0.03984, 0.00400), (-0.01760, -0.04250, 0.00400), (-0.01191, -0.04443, 0.00400), (-0.00600, -0.04561, 0.00400), (-0.00000, -0.04600, 0.00400), (0.00600, -0.04561, 0.00400), (0.01191, -0.04443, 0.00400), (0.01760, -0.04250, 0.00400), (0.02300, -0.03984, 0.00400), (0.02800, -0.03649, 0.00400), (0.03253, -0.03253, 0.00400), (0.03649, -0.02800, 0.00400), (0.03984, -0.02300, 0.00400), (0.04250, -0.01760, 0.00400), (0.04443, -0.01191, 0.00400), (0.04561, -0.00600, 0.00400), (0.05160, 0.00000, 0.02805), (0.05116, 0.00674, 0.02805), (0.04984, 0.01336, 0.02805), (0.04767, 0.01975, 0.02805), (0.04469, 0.02580, 0.02805), (0.04094, 0.03141, 0.02805), (0.03649, 0.03649, 0.02805), (0.03141, 0.04094, 0.02805), (0.02580, 0.04469, 0.02805), (0.01975, 0.04767, 0.02805), (0.01336, 0.04984, 0.02805), (0.00674, 0.05116, 0.02805), (0.00000, 0.05160, 0.02805), (-0.00674, 0.05116, 0.02805), (-0.01336, 0.04984, 0.02805), (-0.01975, 0.04767, 0.02805), (-0.02580, 0.04469, 0.02805), (-0.03141, 0.04094, 0.02805), (-0.03649, 0.03649, 0.02805), (-0.04094, 0.03141, 0.02805), (-0.04469, 0.02580, 0.02805), (-0.04767, 0.01975, 0.02805), (-0.04984, 0.01336, 0.02805), (-0.05116, 0.00674, 0.02805), (-0.05160, 0.00000, 0.02805), (-0.05116, -0.00674, 0.02805), (-0.04984, -0.01336, 0.02805), (-0.04767, -0.01975, 0.02805), (-0.04469, -0.02580, 0.02805), (-0.04094, -0.03141, 0.02805), (-0.03649, -0.03649, 0.02805), (-0.03141, -0.04094, 0.02805), (-0.02580, -0.04469, 0.02805), (-0.01975, -0.04767, 0.02805), (-0.01336, -0.04984, 0.02805), (-0.00674, -0.05116, 0.02805), (-0.00000, -0.05160, 0.02805), (0.00674, -0.05116, 0.02805), (0.01336, -0.04984, 0.02805), (0.01975, -0.04767, 0.02805), (0.02580, -0.04469, 0.02805), (0.03141, -0.04094, 0.02805), (0.03649, -0.03649, 0.02805), (0.04094, -0.03141, 0.02805), (0.04469, -0.02580, 0.02805), (0.04767, -0.01975, 0.02805), (0.04984, -0.01336, 0.02805), (0.05116, -0.00674, 0.02805), (0.05560, 0.00000, 0.05100), (0.05512, 0.00726, 0.05100), (0.05371, 0.01439, 0.05100), (0.05137, 0.02128, 0.05100), (0.04815, 0.02780, 0.05100), (0.04411, 0.03385, 0.05100), (0.03932, 0.03932, 0.05100), (0.03385, 0.04411, 0.05100), (0.02780, 0.04815, 0.05100), (0.02128, 0.05137, 0.05100), (0.01439, 0.05371, 0.05100), (0.00726, 0.05512, 0.05100), (0.00000, 0.05560, 0.05100), (-0.00726, 0.05512, 0.05100), (-0.01439, 0.05371, 0.05100), (-0.02128, 0.05137, 0.05100), (-0.02780, 0.04815, 0.05100), (-0.03385, 0.04411, 0.05100), (-0.03932, 0.03932, 0.05100), (-0.04411, 0.03385, 0.05100), (-0.04815, 0.02780, 0.05100), (-0.05137, 0.02128, 0.05100), (-0.05371, 0.01439, 0.05100), (-0.05512, 0.00726, 0.05100), (-0.05560, 0.00000, 0.05100), (-0.05512, -0.00726, 0.05100), (-0.05371, -0.01439, 0.05100), (-0.05137, -0.02128, 0.05100), (-0.04815, -0.02780, 0.05100), (-0.04411, -0.03385, 0.05100), (-0.03932, -0.03932, 0.05100), (-0.03385, -0.04411, 0.05100), (-0.02780, -0.04815, 0.05100), (-0.02128, -0.05137, 0.05100), (-0.01439, -0.05371, 0.05100), (-0.00726, -0.05512, 0.05100), (-0.00000, -0.05560, 0.05100), (0.00726, -0.05512, 0.05100), (0.01439, -0.05371, 0.05100), (0.02128, -0.05137, 0.05100), (0.02780, -0.04815, 0.05100), (0.03385, -0.04411, 0.05100), (0.03932, -0.03932, 0.05100), (0.04411, -0.03385, 0.05100), (0.04815, -0.02780, 0.05100), (0.05137, -0.02128, 0.05100), (0.05371, -0.01439, 0.05100), (0.05512, -0.00726, 0.05100), (0.05360, 0.00000, 0.05300), (0.05314, 0.00700, 0.05300), (0.05177, 0.01387, 0.05300), (0.04952, 0.02051, 0.05300), (0.04642, 0.02680, 0.05300), (0.04252, 0.03263, 0.05300), (0.03790, 0.03790, 0.05300), (0.03263, 0.04252, 0.05300), (0.02680, 0.04642, 0.05300), (0.02051, 0.04952, 0.05300), (0.01387, 0.05177, 0.05300), (0.00700, 0.05314, 0.05300), (0.00000, 0.05360, 0.05300), (-0.00700, 0.05314, 0.05300), (-0.01387, 0.05177, 0.05300), (-0.02051, 0.04952, 0.05300), (-0.02680, 0.04642, 0.05300), (-0.03263, 0.04252, 0.05300), (-0.03790, 0.03790, 0.05300), (-0.04252, 0.03263, 0.05300), (-0.04642, 0.02680, 0.05300), (-0.04952, 0.02051, 0.05300), (-0.05177, 0.01387, 0.05300), (-0.05314, 0.00700, 0.05300), (-0.05360, 0.00000, 0.05300), (-0.05314, -0.00700, 0.05300), (-0.05177, -0.01387, 0.05300), (-0.04952, -0.02051, 0.05300), (-0.04642, -0.02680, 0.05300), (-0.04252, -0.03263, 0.05300), (-0.03790, -0.03790, 0.05300), (-0.03263, -0.04252, 0.05300), (-0.02680, -0.04642, 0.05300), (-0.02051, -0.04952, 0.05300), (-0.01387, -0.05177, 0.05300), (-0.00700, -0.05314, 0.05300), (-0.00000, -0.05360, 0.05300), (0.00700, -0.05314, 0.05300), (0.01387, -0.05177, 0.05300), (0.02051, -0.04952, 0.05300), (0.02680, -0.04642, 0.05300), (0.03263, -0.04252, 0.05300), (0.03790, -0.03790, 0.05300), (0.04252, -0.03263, 0.05300), (0.04642, -0.02680, 0.05300), (0.04952, -0.02051, 0.05300), (0.05177, -0.01387, 0.05300), (0.05314, -0.00700, 0.05300), (0.05100, 0.00000, 0.05100), (0.05056, 0.00666, 0.05100), (0.04926, 0.01320, 0.05100), (0.04712, 0.01952, 0.05100), (0.04417, 0.02550, 0.05100), (0.04046, 0.03105, 0.05100), (0.03606, 0.03606, 0.05100), (0.03105, 0.04046, 0.05100), (0.02550, 0.04417, 0.05100), (0.01952, 0.04712, 0.05100), (0.01320, 0.04926, 0.05100), (0.00666, 0.05056, 0.05100), (0.00000, 0.05100, 0.05100), (-0.00666, 0.05056, 0.05100), (-0.01320, 0.04926, 0.05100), (-0.01952, 0.04712, 0.05100), (-0.02550, 0.04417, 0.05100), (-0.03105, 0.04046, 0.05100), (-0.03606, 0.03606, 0.05100), (-0.04046, 0.03105, 0.05100), (-0.04417, 0.02550, 0.05100), (-0.04712, 0.01952, 0.05100), (-0.04926, 0.01320, 0.05100), (-0.05056, 0.00666, 0.05100), (-0.05100, 0.00000, 0.05100), (-0.05056, -0.00666, 0.05100), (-0.04926, -0.01320, 0.05100), (-0.04712, -0.01952, 0.05100), (-0.04417, -0.02550, 0.05100), (-0.04046, -0.03105, 0.05100), (-0.03606, -0.03606, 0.05100), (-0.03105, -0.04046, 0.05100), (-0.02550, -0.04417, 0.05100), (-0.01952, -0.04712, 0.05100), (-0.01320, -0.04926, 0.05100), (-0.00666, -0.05056, 0.05100), (-0.00000, -0.05100, 0.05100), (0.00666, -0.05056, 0.05100), (0.01320, -0.04926, 0.05100), (0.01952, -0.04712, 0.05100), (0.02550, -0.04417, 0.05100), (0.03105, -0.04046, 0.05100), (0.03606, -0.03606, 0.05100), (0.04046, -0.03105, 0.05100), (0.04417, -0.02550, 0.05100), (0.04712, -0.01952, 0.05100), (0.04926, -0.01320, 0.05100), (0.05056, -0.00666, 0.05100), (0.04800, 0.00000, 0.02805), (0.04759, 0.00627, 0.02805), (0.04636, 0.01242, 0.02805), (0.04435, 0.01837, 0.02805), (0.04157, 0.02400, 0.02805), (0.03808, 0.02922, 0.02805), (0.03394, 0.03394, 0.02805), (0.02922, 0.03808, 0.02805), (0.02400, 0.04157, 0.02805), (0.01837, 0.04435, 0.02805), (0.01242, 0.04636, 0.02805), (0.00627, 0.04759, 0.02805), (0.00000, 0.04800, 0.02805), (-0.00627, 0.04759, 0.02805), (-0.01242, 0.04636, 0.02805), (-0.01837, 0.04435, 0.02805), (-0.02400, 0.04157, 0.02805), (-0.02922, 0.03808, 0.02805), (-0.03394, 0.03394, 0.02805), (-0.03808, 0.02922, 0.02805), (-0.04157, 0.02400, 0.02805), (-0.04435, 0.01837, 0.02805), (-0.04636, 0.01242, 0.02805), (-0.04759, 0.00627, 0.02805), (-0.04800, 0.00000, 0.02805), (-0.04759, -0.00627, 0.02805), (-0.04636, -0.01242, 0.02805), (-0.04435, -0.01837, 0.02805), (-0.04157, -0.02400, 0.02805), (-0.03808, -0.02922, 0.02805), (-0.03394, -0.03394, 0.02805), (-0.02922, -0.03808, 0.02805), (-0.02400, -0.04157, 0.02805), (-0.01837, -0.04435, 0.02805), (-0.01242, -0.04636, 0.02805), (-0.00627, -0.04759, 0.02805), (-0.00000, -0.04800, 0.02805), (0.00627, -0.04759, 0.02805), (0.01242, -0.04636, 0.02805), (0.01837, -0.04435, 0.02805), (0.02400, -0.04157, 0.02805), (0.02922, -0.03808, 0.02805), (0.03394, -0.03394, 0.02805), (0.03808, -0.02922, 0.02805), (0.04157, -0.02400, 0.02805), (0.04435, -0.01837, 0.02805), (0.04636, -0.01242, 0.02805), (0.04759, -0.00627, 0.02805), (0.03800, 0.00000, 0.00800), (0.03767, 0.00496, 0.00800), (0.03671, 0.00984, 0.00800), (0.03511, 0.01454, 0.00800), (0.03291, 0.01900, 0.00800), (0.03015, 0.02313, 0.00800), (0.02687, 0.02687, 0.00800), (0.02313, 0.03015, 0.00800), (0.01900, 0.03291, 0.00800), (0.01454, 0.03511, 0.00800), (0.00984, 0.03671, 0.00800), (0.00496, 0.03767, 0.00800), (0.00000, 0.03800, 0.00800), (-0.00496, 0.03767, 0.00800), (-0.00984, 0.03671, 0.00800), (-0.01454, 0.03511, 0.00800), (-0.01900, 0.03291, 0.00800), (-0.02313, 0.03015, 0.00800), (-0.02687, 0.02687, 0.00800), (-0.03015, 0.02313, 0.00800), (-0.03291, 0.01900, 0.00800), (-0.03511, 0.01454, 0.00800), (-0.03671, 0.00984, 0.00800), (-0.03767, 0.00496, 0.00800), (-0.03800, 0.00000, 0.00800), (-0.03767, -0.00496, 0.00800), (-0.03671, -0.00984, 0.00800), (-0.03511, -0.01454, 0.00800), (-0.03291, -0.01900, 0.00800), (-0.03015, -0.02313, 0.00800), (-0.02687, -0.02687, 0.00800), (-0.02313, -0.03015, 0.00800), (-0.01900, -0.03291, 0.00800), (-0.01454, -0.03511, 0.00800), (-0.00984, -0.03671, 0.00800), (-0.00496, -0.03767, 0.00800), (-0.00000, -0.03800, 0.00800), (0.00496, -0.03767, 0.00800), (0.00984, -0.03671, 0.00800), (0.01454, -0.03511, 0.00800), (0.01900, -0.03291, 0.00800), (0.02313, -0.03015, 0.00800), (0.02687, -0.02687, 0.00800), (0.03015, -0.02313, 0.00800), (0.03291, -0.01900, 0.00800), (0.03511, -0.01454, 0.00800), (0.03671, -0.00984, 0.00800), (0.03767, -0.00496, 0.00800), (0.02520, 0.00000, 0.00600), (0.02498, 0.00329, 0.00600), (0.02434, 0.00652, 0.00600), (0.02328, 0.00964, 0.00600), (0.02182, 0.01260, 0.00600), (0.01999, 0.01534, 0.00600), (0.01782, 0.01782, 0.00600), (0.01534, 0.01999, 0.00600), (0.01260, 0.02182, 0.00600), (0.00964, 0.02328, 0.00600), (0.00652, 0.02434, 0.00600), (0.00329, 0.02498, 0.00600), (0.00000, 0.02520, 0.00600), (-0.00329, 0.02498, 0.00600), (-0.00652, 0.02434, 0.00600), (-0.00964, 0.02328, 0.00600), (-0.01260, 0.02182, 0.00600), (-0.01534, 0.01999, 0.00600), (-0.01782, 0.01782, 0.00600), (-0.01999, 0.01534, 0.00600), (-0.02182, 0.01260, 0.00600), (-0.02328, 0.00964, 0.00600), (-0.02434, 0.00652, 0.00600), (-0.02498, 0.00329, 0.00600), (-0.02520, 0.00000, 0.00600), (-0.02498, -0.00329, 0.00600), (-0.02434, -0.00652, 0.00600), (-0.02328, -0.00964, 0.00600), (-0.02182, -0.01260, 0.00600), (-0.01999, -0.01534, 0.00600), (-0.01782, -0.01782, 0.00600), (-0.01534, -0.01999, 0.00600), (-0.01260, -0.02182, 0.00600), (-0.00964, -0.02328, 0.00600), (-0.00652, -0.02434, 0.00600), (-0.00329, -0.02498, 0.00600), (-0.00000, -0.02520, 0.00600), (0.00329, -0.02498, 0.00600), (0.00652, -0.02434, 0.00600), (0.00964, -0.02328, 0.00600), (0.01260, -0.02182, 0.00600), (0.01534, -0.01999, 0.00600), (0.01782, -0.01782, 0.00600), (0.01999, -0.01534, 0.00600), (0.02182, -0.01260, 0.00600), (0.02328, -0.00964, 0.00600), (0.02434, -0.00652, 0.00600), (0.02498, -0.00329, 0.00600), (0.00000, 0.00000, 0.00000), (0.00000, 0.00000, 0.00600)]
        uniform token subdivisionScheme = "none"
        uniform token physics:approximation = "none"
        bool physics:collisionEnabled = 1
        rel material:binding = </Bowl/Looks/BowlMaterial>
    }
    def Scope "Looks"
    {
        def Material "BowlMaterial"
        {
            token outputs:surface.connect = </Bowl/Looks/BowlMaterial/Surface.outputs:surface>
            def Shader "Surface"
            {
                uniform token info:id = "UsdPreviewSurface"
                color3f inputs:diffuseColor = (0.549, 0.647, 0.588)
                float inputs:roughness = 0.6
                float inputs:metallic = 0
                token outputs:surface
            }
        }
    }
}
